<svg xmlns="http://www.w3.org/2000/svg" xmlns:xlink="http://www.w3.org/1999/xlink" viewBox="0 0 37.66 31.85"><defs><style>.cls-1{fill:#381e1f;}.cls-2{fill:url(#무제_그라디언트_76);}.cls-3{fill:url(#무제_그라디언트_76-2);}.cls-4{fill:url(#무제_그라디언트_76-3);}.cls-5{fill:url(#무제_그라디언트_76-4);}</style><linearGradient id="무제_그라디언트_76" x1="4.93" y1="14.5" x2="12.68" y2="14.5" gradientUnits="userSpaceOnUse"><stop offset="0" stop-color="#e5dd4a"/><stop offset="0.02" stop-color="#e5dc47"/><stop offset="0.18" stop-color="#e4d83c"/><stop offset="0.4" stop-color="#e4d635"/><stop offset="1" stop-color="#e4d533"/></linearGradient><linearGradient id="무제_그라디언트_76-2" x1="11.1" y1="14.51" x2="19.22" y2="14.51" xlink:href="#무제_그라디언트_76"/><linearGradient id="무제_그라디언트_76-3" x1="19.86" y1="14.5" x2="25.28" y2="14.5" xlink:href="#무제_그라디언트_76"/><linearGradient id="무제_그라디언트_76-4" x1="25.73" y1="14.52" x2="32.68" y2="14.52" xlink:href="#무제_그라디언트_76"/></defs><title>Asset 1</title><g id="Layer_2" data-name="Layer 2"><g id="Icons"><path class="cls-1" d="M18.83,0C8.43,0,0,6.14,0,13.7c0,4.93,3.57,9.24,8.93,11.66C8.54,26.72,7.51,30.27,7.3,31c-.26.94.37.93.79.68l7.25-4.53a25.83,25.83,0,0,0,3.5.24c10.4,0,18.83-6.14,18.83-13.7S29.23,0,18.83,0Z"/><path class="cls-2" d="M11.76,9.89h-6a1,1,0,0,0,0,1.92h2s0,5.35,0,6.61c0,.92,2,.91,2,0v-6.6h2A1,1,0,0,0,11.76,9.89Z"/><path class="cls-3" d="M16.36,10.48c-.29-.63-2-.93-2.39,0s-2.23,6.09-2.81,7.42c-.42,1,1.39,1.75,1.81.79l.39-1.37H17s-.12.06.35,1.31c.39,1,2.25.31,1.86-.71C18.62,16.47,16.71,11.23,16.36,10.48Zm-2.36,5,1.18-3.42,1.09,3.42Z"/><path class="cls-4" d="M24.58,17.13H22s0-5.09,0-6.33-2.13-1.19-2.12,0c0,1.71,0,7.21,0,7.21s-.16,1.09.78,1.09h3.94C25.51,19.09,25.51,17.13,24.58,17.13Z"/><path class="cls-5" d="M32.57,17.69l-2.75-3.62s1.87-2,2.6-2.75c.43-.43-.9-1.76-1.33-1.34l-3.34,3.34s0-1.84,0-2.85c0-.8-2-.74-2,.05s0,7.52,0,8c0,.79,2,.79,2,0s0-2.66,0-2.66l.59-.47,2.59,3.53C31.45,19.63,33.1,18.38,32.57,17.69Z"/></g></g></svg>